<svg id="ICON" xmlns="http://www.w3.org/2000/svg" viewBox="0 0 512 512"><defs><style>.cls-1{fill:#e38a58;}.cls-2{fill:#2a3342;}.cls-3{fill:#8b301d;}.cls-4{fill:#d07c2c;}.cls-5{fill:#aa6329;}.cls-6{fill:#cf6b58;}.cls-7{fill:#d1c8c7;}.cls-8{fill:none;}.cls-9{fill:#67ab65;}.cls-10{fill:#75b7f6;}.cls-11{fill:#d37847;}</style></defs><title>Cooking</title><path class="cls-1" d="M472.84,256.35V313.1A171.19,171.19,0,0,1,301.65,484.28q-4.84,0-9.59-.26s0,0-.07,0A171.14,171.14,0,0,1,130.47,313.1V256.35l12.21-2.81,159-36.82C396.19,216.72,472.84,234.45,472.84,256.35Z"/><path class="cls-2" d="M472.84,256.35c0,6-5.82,11.72-16.19,16.86-27.35,13.47-86.46,22.8-155,22.8-33.14,0-64.08-2.16-90.27-6-28-4-50.62-9.89-64.73-16.83-10.37-5.14-16.18-10.82-16.18-16.86a11.71,11.71,0,0,1,3.2-7.62c15.34-18.25,84.72-32,168-32C396.19,216.72,472.84,234.45,472.84,256.35Z"/><ellipse class="cls-3" cx="301.65" cy="273.21" rx="155" ry="22.8"/><path class="cls-4" d="M247.41,277.92a8.36,8.36,0,0,1-1.35,2.21,10.85,10.85,0,0,1-14.19,2.29L181.78,250.8a16.17,16.17,0,0,1-3.88-23.92l2-2.39.67-.85a16.2,16.2,0,0,1,24.24-.86l40.76,43A10.71,10.71,0,0,1,247.41,277.92Z"/><path class="cls-5" d="M247.41,277.92a8.36,8.36,0,0,1-1.35,2.21,10.85,10.85,0,0,1-14.19,2.29L181.78,250.8a16.17,16.17,0,0,1-3.88-23.92l2-2.39C191.78,238.37,220.74,269.45,247.41,277.92Z"/><path class="cls-6" d="M292.05,248.27l6.39-6.62,5.76-6a35.07,35.07,0,1,1-48.64,50.53l5.79-6,6.38-6.63Z"/><path class="cls-7" d="M261.35,280.17l37.09-38.52a26.74,26.74,0,1,1-37.09,38.52Z"/><path class="cls-6" d="M292.05,248.27a17.54,17.54,0,1,1-24.32,25.27Z"/><path class="cls-7" d="M286,254.61a8.76,8.76,0,0,1-12.15,12.62Z"/><polyline class="cls-8" points="267.73 273.54 273.81 267.23 285.96 254.61 292.05 248.28"/><circle class="cls-9" cx="339.49" cy="263.36" r="12.27"/><circle class="cls-9" cx="261.35" cy="241.65" r="12.27"/><rect class="cls-9" x="381.47" y="222.33" width="21.53" height="67.19" rx="10.05" transform="translate(299.36 -203.12) rotate(45.44)"/><path class="cls-10" d="M39,39.28h0a22,22,0,0,1,31.17-8.15l141,89.14L201.06,139,49.25,69.83A22,22,0,0,1,39,39.28Z"/><ellipse class="cls-10" cx="246.32" cy="151.39" rx="40.07" ry="71.6" transform="translate(-4 296.06) rotate(-61.6)"/><ellipse class="cls-3" cx="246.32" cy="151.39" rx="31.29" ry="55.91" transform="translate(-4 296.06) rotate(-61.6)"/><path class="cls-3" d="M439.36,360.75c-4.75-9.46,1.89-38.91,1.89-38.91s27.61,12.24,32.36,21.69a19.17,19.17,0,1,1-34.25,17.22Z"/><path class="cls-3" d="M134.2,172.91c9.32,5,20.79,33,20.79,33s-29.63,5.82-38.95.8a19.16,19.16,0,1,1,18.16-33.75Z"/><path class="cls-3" d="M468.24,196.05c-6.87,8-36.6,13.35-36.6,13.35s.58-30.19,7.46-38.24a19.16,19.16,0,1,1,29.14,24.89Z"/><path class="cls-3" d="M357.83,100.7c-2.81,10.21-27.49,27.61-27.49,27.61s-12.28-27.58-9.47-37.79a19.17,19.17,0,1,1,37,10.18Z"/><path class="cls-11" d="M211.38,290c-28-4-50.62-9.89-64.73-16.83-10.37-5.14-16.18-10.82-16.18-16.86V313.1A171.14,171.14,0,0,0,292,484C193.64,461.87,211.38,290,211.38,290Z"/><path class="cls-3" d="M127.15,343.11c6.5-8.35,35.95-15,35.95-15s.82,30.18-5.68,38.54a19.17,19.17,0,1,1-30.27-23.52Z"/></svg>